<?xml version="1.0" encoding="utf-8"?>
<!-- Generator: Adobe Illustrator 24.1.2, SVG Export Plug-In . SVG Version: 6.00 Build 0)  -->
<svg version="1.1" xmlns="http://www.w3.org/2000/svg" xmlns:xlink="http://www.w3.org/1999/xlink" x="0px" y="0px"
	 viewBox="0 0 792 612" style="enable-background:new 0 0 792 612;" xml:space="preserve">
<style type="text/css">
	.st0{fill:none;}
	.st1{fill:#A7A9AC;}
	.st2{font-family:'Algerian';}
	.st3{font-size:41.2955px;}
</style>
<g id="temple_reference">
</g>
<g id="logo">
	<path class="st0" d="M272.2,101.8c0,338.9,0,778.2,0,778.2h86.9V-284.2h-86.9c0,0,0,146.3,0,335.2"/>
	<path class="st0" d="M272.2,53.4c0,22.6,0,45.9,0,69.5"/>
	<path class="st0" d="M359.1,88.2c0-206.5,0-372.4,0-372.4h-86.9c0,0,0,175.6,0,390.4"/>
	<path class="st0" d="M359.1,314.7c0-71.6,0-143.6,0-211.6"/>
	<path class="st0" d="M359.1,209.8c0-1.7,0-3.3,0-5"/>
	<path class="st0" d="M359.1,222.2c0-3.9,0-7.9,0-11.8"/>
	<g>
		<polygon class="st1" points="453,425.1 453,513 265.1,513 265.1,425.1 304,425.1 304,342.3 326.1,342.3 326.1,277.3 343,277.3 
			343,190.2 352.5,190.2 352.5,143.7 365.6,143.7 365.6,190.2 376.1,190.2 376.1,277.3 394.9,277.3 394.9,342.3 414.2,342.3 
			414.2,425.1 		"/>
		<text transform="matrix(0.7638 0 0 1 274.772 470.3548)"><tspan x="0" y="0" class="st2 st3">Temple Inn</tspan><tspan x="0" y="30" class="st2 st3">  &amp; Suites</tspan></text>
	</g>
</g>
</svg>
